<svg viewBox="0 0 48 48" xmlns="http://www.w3.org/2000/svg">
    <g id="Layer_3">
        <path
                d="m22.707 28.293-3-3c-.391-.391-1.023-.391-1.414 0l-5 5c-.391.391-.391 1.023 0 1.414l3 3c.195.195.451.293.707.293s.512-.098.707-.293l5-5c.391-.391.391-1.023 0-1.414z"
                fill="#aaa"/>
        <circle cx="31" cy="17" fill="#aaa" r="15"/>
        <circle cx="31" cy="17" fill="#97d3ff" r="11"/>
        <path
                d="m18 33.586-3.586-3.586c-.779-.78-2.049-.78-2.828 0l-8.586 8.585c-.645.645-1 1.502-1 2.415s.355 1.77 1 2.414l1.586 1.586c.645.645 1.503 1 2.414 1s1.769-.355 2.414-1l8.586-8.586c.78-.78.78-2.048 0-2.828z"
                fill="#898989"/>
        <g fill="#fff">
            <path
                    d="m35.168 20.445c-1.944 2.752-4.926 1.584-4.926 1.584-1.453-.255-1.601 1.667-.484 1.94 0 0 4.101 1.61 7.074-2.416.772-1.043-.867-2.237-1.664-1.108z"/>
            <path
                    d="m31 12c-.002-.551.448-1 1-1 1.293 0 1.376-2 0-2-1.654 0-2.993 1.346-3 3-.005 1.244 2.006 1.471 2 0z"/>
            <path
                    d="m35.707 17.707c1.488-1.498 1.482-3.91 0-5.414-.78-.791-2.45.211-1.414 1.414.658.764.769 1.934 0 2.586-.905.768.368 2.467 1.414 1.414z"/>
            <path
                    d="m25.293 12.293c-2.922 2.666-1.263 6.95-1.263 6.95.482 1.442 2.224.71 1.939-.485 0 0-1.239-3.047.737-5.05.964-.977-.516-2.234-1.413-1.415z"/>
            <path
                    d="m30.447 18.895c.522-.18.694-.848.447-1.342-.248-.495-.822-.637-1.342-.447-.697.254-.579-.798-.552-1.106.048-.55-.447-1-1-1s-.951.45-1 1c-.155 1.739.773 3.818 3.447 2.895z"/>
        </g>
    </g>
</svg>